<?xml version="1.0" encoding="UTF-8"?>
<svg version="1.1" xmlns="http://www.w3.org/2000/svg" width="254" height="287">
<path d="M0 0 C1.77916467 1.77916467 1.12764835 4.38313299 1.12939453 6.7890625 C1.13254669 8.0270459 1.13569885 9.2650293 1.13894653 10.54052734 C1.13715675 11.90201859 1.1351058 13.26350951 1.1328125 14.625 C1.13348559 16.01123064 1.13445566 17.39746117 1.13571167 18.78369141 C1.1371884 21.69239422 1.1350349 24.60106637 1.13037109 27.50976562 C1.12467381 31.24596598 1.12795294 34.98209452 1.13394356 38.71829224 C1.13754985 41.58179266 1.13641027 44.44527593 1.13381577 47.30877686 C1.13314668 48.68674732 1.13397426 50.06471932 1.13629532 51.44268799 C1.13882292 53.36543754 1.13429024 55.28819252 1.12939453 57.2109375 C1.12859894 58.30712402 1.12780334 59.40331055 1.12698364 60.53271484 C1 63 1 63 0 64 C-1.85528662 64.33175399 -3.71186309 64.65762221 -5.57373047 64.95019531 C-22.61915255 67.63377333 -36.56543503 73.51674214 -48 87 C-48.53625 87.91523437 -49.0725 88.83046875 -49.625 89.7734375 C-50.07875 90.50820312 -50.5325 91.24296875 -51 92 C-51.66 92 -52.32 92 -53 92 C-53.268125 92.845625 -53.53625 93.69125 -53.8125 94.5625 C-55.30421071 98.88060995 -57.11128816 103.03363758 -58.9921875 107.1953125 C-60.30333411 110.84416237 -60.95741275 114.50112175 -61.625 118.3125 C-61.7590625 119.05306641 -61.893125 119.79363281 -62.03125 120.55664062 C-62.35886984 122.37025044 -62.68008494 124.18501524 -63 126 C-62.2277005 125.99777939 -61.455401 125.99555878 -60.65969849 125.99327087 C-53.3905466 125.97325496 -46.12140802 125.95801921 -38.85223579 125.94818783 C-35.1148575 125.94296356 -31.37750193 125.93587416 -27.64013672 125.92456055 C-24.03510184 125.9137155 -20.43008884 125.90771972 -16.82503891 125.90512276 C-15.44789154 125.90327143 -14.07074541 125.8996564 -12.69360733 125.89426994 C-10.76856906 125.88703819 -8.84350888 125.88659176 -6.91845703 125.88647461 C-5.82147491 125.884254 -4.7244928 125.88203339 -3.5942688 125.87974548 C-1 126 -1 126 1 127 C1 147.46 1 167.92 1 189 C21.47474019 185.38681055 37.21214787 180.46355175 49.9375 163.40234375 C56.53864055 153.51485952 60.37219608 143.98061818 61.3684082 132.16723633 C61.51992851 130.43863336 61.75282683 128.71753662 62 127 C64.71873876 125.64063062 66.8590737 125.87281888 69.90258789 125.87060547 C71.14049576 125.86745331 72.37840363 125.86430115 73.65382385 125.86105347 C75.01010168 125.86284311 76.36637918 125.86489403 77.72265625 125.8671875 C79.10745765 125.8665142 80.49225894 125.86554395 81.87705994 125.86428833 C84.77978643 125.86281309 87.68248216 125.86496066 90.58520508 125.86962891 C94.3135297 125.87533142 98.04178242 125.87204281 101.77010441 125.86605644 C104.62931362 125.86245067 107.48850566 125.86358939 110.34771538 125.86618423 C111.72289475 125.86685318 113.09807567 125.86602619 114.47325325 125.86370468 C116.39110409 125.86117736 118.30896038 125.86570947 120.22680664 125.87060547 C121.31997696 125.87140106 122.41314728 125.87219666 123.53944397 125.87301636 C126 126 126 126 127 127 C127.06448367 139.18741423 125.42222119 150.34102592 122 162 C121.77441406 162.886875 121.54882812 163.77375 121.31640625 164.6875 C115.5562055 186.4403078 100.77498921 207.38134211 84 222 C83.34 222 82.68 222 82 222 C82 222.66 82 223.32 82 224 C59.61408375 244.58734674 28.49568578 253 -1 253 C-1 232.54 -1 212.08 -1 191 C-21.35926608 191.03961243 -21.35926608 191.03961243 -41.71850586 191.09008789 C-44.2589514 191.09300676 -46.7993974 191.09555539 -49.33984375 191.09765625 C-50.00407852 191.10026962 -50.66831329 191.102883 -51.35267639 191.10557556 C-53.30012857 191.11285688 -55.24760258 191.1133384 -57.19506836 191.11352539 C-58.84387245 191.11685631 -58.84387245 191.11685631 -60.52598572 191.12025452 C-63 191 -63 191 -64 190 C-64.0940067 188.03630847 -64.11743381 186.06920801 -64.11352539 184.10327148 C-64.11344986 182.84203964 -64.11337433 181.5808078 -64.11329651 180.28135681 C-64.1081891 178.89460206 -64.10297309 177.50784771 -64.09765625 176.12109375 C-64.09579201 174.71004791 -64.09436814 173.29900143 -64.09336853 171.88795471 C-64.08954379 168.16759465 -64.0797139 164.4472734 -64.06866455 160.72692871 C-64.05665461 156.26660209 -64.05204798 151.80626252 -64.04621124 147.34592438 C-64.0365021 140.56392256 -64.01734528 133.78200597 -64 127 C-94.69 127.495 -94.69 127.495 -126 128 C-126 103.64252992 -126 103.64252992 -123.875 96 C-123.65054199 95.13173584 -123.42608398 94.26347168 -123.19482422 93.36889648 C-121.24288256 86.16281083 -118.45296162 79.61532747 -115 73 C-114.49984375 71.89914063 -113.9996875 70.79828125 -113.484375 69.6640625 C-110.19723428 62.56320027 -106.35953164 56.3856894 -101.6875 50.125 C-101.15946777 49.41625732 -100.63143555 48.70751465 -100.08740234 47.97729492 C-98.77942978 46.27490469 -97.39592387 44.63104914 -96 43 C-95.34 43 -94.68 43 -94 43 C-93.7628125 42.43796875 -93.525625 41.8759375 -93.28125 41.296875 C-91.71052303 38.48105958 -89.78528536 36.52044584 -87.5 34.25 C-86.7059375 33.45078125 -85.911875 32.6515625 -85.09375 31.828125 C-83 30 -83 30 -81 30 C-81 29.34 -81 28.68 -81 28 C-59.05608304 10.29352907 -28.54146102 -2.14935696 0 0 Z " fill="#FFFFFF" transform="translate(126,21)"/>
</svg>
